<svg xmlns="http://www.w3.org/2000/svg" width="22.589" height="25.816" viewBox="0 0 22.589 25.816">
  <path id="Icon_awesome-calendar-check" data-name="Icon awesome-calendar-check" d="M21.984,8.068H.605A.605.605,0,0,1,0,7.463V5.647a2.42,2.42,0,0,1,2.42-2.42h2.42V.605A.605.605,0,0,1,5.446,0H7.463a.605.605,0,0,1,.605.605V3.227h6.454V.605A.605.605,0,0,1,15.127,0h2.017a.605.605,0,0,1,.605.605V3.227h2.42a2.42,2.42,0,0,1,2.42,2.42V7.463A.605.605,0,0,1,21.984,8.068ZM.605,9.681H21.984a.605.605,0,0,1,.605.605V23.4a2.42,2.42,0,0,1-2.42,2.42H2.42A2.42,2.42,0,0,1,0,23.4V10.286A.605.605,0,0,1,.605,9.681Zm16.806,4.838-1.42-1.432a.605.605,0,0,0-.856,0l-5.347,5.3L7.47,16.05a.605.605,0,0,0-.856,0l-1.432,1.42a.605.605,0,0,0,0,.856l4.165,4.2a.605.605,0,0,0,.856,0l7.208-7.15a.605.605,0,0,0,0-.856Z" fill="#f2f2f2"/>
</svg>
