<svg xmlns="http://www.w3.org/2000/svg" width="32.081" height="22.457" viewBox="0 0 32.081 22.457">
  <path id="Icon_awesome-users" data-name="Icon awesome-users" d="M4.812,11.874A3.208,3.208,0,1,0,1.6,8.666,3.211,3.211,0,0,0,4.812,11.874Zm22.457,0a3.208,3.208,0,1,0-3.208-3.208A3.211,3.211,0,0,0,27.269,11.874Zm1.6,1.6H25.665a3.2,3.2,0,0,0-2.261.932,7.332,7.332,0,0,1,3.765,5.484h3.308a1.6,1.6,0,0,0,1.6-1.6v-1.6A3.211,3.211,0,0,0,28.873,13.478Zm-12.832,0a5.614,5.614,0,1,0-5.614-5.614A5.611,5.611,0,0,0,16.04,13.478Zm3.85,1.6h-.416a7.751,7.751,0,0,1-6.867,0h-.416a5.776,5.776,0,0,0-5.775,5.775V22.3a2.407,2.407,0,0,0,2.406,2.406H23.259A2.407,2.407,0,0,0,25.665,22.3V20.857A5.776,5.776,0,0,0,19.89,15.082ZM8.677,14.411a3.2,3.2,0,0,0-2.261-.932H3.208A3.211,3.211,0,0,0,0,16.686v1.6a1.6,1.6,0,0,0,1.6,1.6h3.3A7.351,7.351,0,0,1,8.677,14.411Z" transform="translate(0 -2.25)" fill="#f2f2f2"/>
</svg>
