<svg xmlns="http://www.w3.org/2000/svg" width="23.762" height="20.784" viewBox="0 0 26.762 23.784">
  <path id="Icon_awesome-edit" data-name="Icon awesome-edit" d="M18.705,3.868,22.9,8.059a.454.454,0,0,1,0,.641L12.749,18.847l-4.312.479a.9.9,0,0,1-1-1l.479-4.312L18.064,3.868A.454.454,0,0,1,18.705,3.868ZM26.232,2.8,23.965.537a1.817,1.817,0,0,0-2.565,0L19.755,2.181a.454.454,0,0,0,0,.641l4.191,4.191a.454.454,0,0,0,.641,0l1.645-1.645a1.817,1.817,0,0,0,0-2.565ZM17.841,16.087v4.73H2.974V5.949H13.65a.571.571,0,0,0,.395-.163L15.9,3.928a.558.558,0,0,0-.395-.952H2.23A2.231,2.231,0,0,0,0,5.206V21.56a2.231,2.231,0,0,0,2.23,2.23H18.585a2.231,2.231,0,0,0,2.23-2.23V14.229a.559.559,0,0,0-.952-.395L18,15.692A.571.571,0,0,0,17.841,16.087Z" transform="translate(0 -0.007)" fill="#038c8c"/>
</svg>
