<svg xmlns="http://www.w3.org/2000/svg" width="20" height="20" viewBox="0 0 23.304 23.304">
  <path id="Icon_awesome-history" data-name="Icon awesome-history"
        d="M23.867,12.193A11.653,11.653,0,0,1,4.9,21.287a1.127,1.127,0,0,1-.086-1.673l.529-.529a1.13,1.13,0,0,1,1.5-.093A8.646,8.646,0,1,0,6.291,5.916L8.676,8.3a.752.752,0,0,1-.532,1.283H1.314a.752.752,0,0,1-.752-.752V2A.752.752,0,0,1,1.846,1.47l2.32,2.32a11.652,11.652,0,0,1,19.7,8.4Zm-8.5,3.7.462-.593a1.128,1.128,0,0,0-.2-1.582l-1.912-1.487v-4.9A1.128,1.128,0,0,0,12.591,6.2h-.752a1.128,1.128,0,0,0-1.128,1.128V13.7l3.073,2.39A1.128,1.128,0,0,0,15.367,15.894Z"
        transform="translate(-0.563 -0.563)" fill="#038c8c"/>
</svg>
