<svg xmlns="http://www.w3.org/2000/svg" width="29.308" height="22.791" viewBox="0 0 29.308 22.791">
    <path id="Icon_awesome-home" data-name="Icon awesome-home"
          d="M14.264,8.166l-9.38,7.726V24.23a.814.814,0,0,0,.814.814l5.7-.015a.814.814,0,0,0,.81-.814v-4.87a.814.814,0,0,1,.814-.814H16.28a.814.814,0,0,1,.814.814v4.866a.814.814,0,0,0,.814.817l5.7.016a.814.814,0,0,0,.814-.814V15.886l-9.378-7.72A.62.62,0,0,0,14.264,8.166Zm14.817,5.251L24.828,9.911V2.864a.611.611,0,0,0-.611-.611H21.368a.611.611,0,0,0-.611.611V6.558L16.2,2.811a2.442,2.442,0,0,0-3.1,0L.221,13.417a.611.611,0,0,0-.081.86l1.3,1.577a.611.611,0,0,0,.86.083L14.264,6.08a.62.62,0,0,1,.778,0l11.968,9.857a.611.611,0,0,0,.86-.081l1.3-1.577a.611.611,0,0,0-.086-.861Z"
          transform="translate(0.001 -2.254)" fill="#F2F2F2"/>
</svg>
