<svg xmlns="http://www.w3.org/2000/svg" width="17.581" height="17.581" viewBox="0 0 17.581 17.581">
  <path id="Icon_awesome-info-circle" data-name="Icon awesome-info-circle" d="M9.353.563a8.791,8.791,0,1,0,8.791,8.791A8.792,8.792,0,0,0,9.353.563Zm0,3.9A1.489,1.489,0,1,1,7.864,5.95,1.489,1.489,0,0,1,9.353,4.462Zm1.985,9a.425.425,0,0,1-.425.425H7.793a.425.425,0,0,1-.425-.425v-.851a.425.425,0,0,1,.425-.425h.425V9.92H7.793a.425.425,0,0,1-.425-.425V8.644a.425.425,0,0,1,.425-.425h2.269a.425.425,0,0,1,.425.425v3.545h.425a.425.425,0,0,1,.425.425Z" transform="translate(-0.563 -0.563)" fill="#038c8c"/>
</svg>
