<svg xmlns="http://www.w3.org/2000/svg" width="28.938" height="23.151" viewBox="0 0 28.938 23.151">
  <path id="Icon_awesome-user-plus" data-name="Icon awesome-user-plus" d="M28.215,9.4H25.321V6.511a.726.726,0,0,0-.723-.723H23.151a.726.726,0,0,0-.723.723V9.4H19.533a.726.726,0,0,0-.723.723v1.447a.726.726,0,0,0,.723.723h2.894v2.894a.726.726,0,0,0,.723.723H24.6a.726.726,0,0,0,.723-.723V12.3h2.894a.726.726,0,0,0,.723-.723V10.128A.726.726,0,0,0,28.215,9.4Zm-18.086,2.17A5.788,5.788,0,1,0,4.341,5.788,5.787,5.787,0,0,0,10.128,11.575Zm4.051,1.447h-.755a7.871,7.871,0,0,1-6.593,0H6.077A6.079,6.079,0,0,0,0,19.1V20.98a2.171,2.171,0,0,0,2.17,2.17H18.086a2.171,2.171,0,0,0,2.17-2.17V19.1A6.079,6.079,0,0,0,14.18,13.022Z" fill="#038c8c"/>
</svg>
