<svg xmlns="http://www.w3.org/2000/svg" width="29.308" height="20.515" viewBox="0 0 29.308 20.515">
    <path id="Icon_awesome-money-check" data-name="Icon awesome-money-check"
          d="M0,21.3a1.466,1.466,0,0,0,1.465,1.465H27.842A1.466,1.466,0,0,0,29.308,21.3V6.646H0Zm20.515-9.525a.732.732,0,0,1,.733-.733h4.4a.732.732,0,0,1,.733.733V13.24a.732.732,0,0,1-.733.733h-4.4a.732.732,0,0,1-.733-.733Zm0,5.5a.366.366,0,0,1,.366-.366h5.129a.366.366,0,0,1,.366.366V18a.366.366,0,0,1-.366.366H20.882A.366.366,0,0,1,20.515,18Zm-17.585-4.4a.366.366,0,0,1,.366-.366H17.218a.366.366,0,0,1,.366.366v.733a.366.366,0,0,1-.366.366H3.3a.366.366,0,0,1-.366-.366Zm0,4.4A.366.366,0,0,1,3.3,16.9h8.06a.366.366,0,0,1,.366.366V18a.366.366,0,0,1-.366.366H3.3A.366.366,0,0,1,2.931,18ZM28.575,2.25H.733A.732.732,0,0,0,0,2.983v2.2H29.308v-2.2A.732.732,0,0,0,28.575,2.25Z"
          transform="translate(0 -2.25)" fill="#F2F2F2"/>
</svg>
