<svg xmlns="http://www.w3.org/2000/svg" width="23.171" height="23.172" viewBox="0 0 23.171 23.172">
  <path id="Icon_awesome-tools" data-name="Icon awesome-tools" d="M22.675,17.906l-5.3-5.3a3.36,3.36,0,0,0-3.865-.629L8.687,7.154V4.344L2.895,0,0,2.9,4.343,8.688h2.81l4.824,4.824a3.367,3.367,0,0,0,.629,3.865l5.3,5.3a1.682,1.682,0,0,0,2.385,0l2.385-2.385a1.691,1.691,0,0,0,0-2.385Zm-7.666-7.725a4.761,4.761,0,0,1,3.389,1.4l.878.878a6.405,6.405,0,0,0,1.982-1.335,6.508,6.508,0,0,0,1.715-6.186.542.542,0,0,0-.91-.249L18.7,8.059l-3.073-.511-.511-3.073L18.48,1.109a.546.546,0,0,0-.258-.914A6.519,6.519,0,0,0,12.04,1.91,6.413,6.413,0,0,0,10.176,6.6l3.715,3.715a4.93,4.93,0,0,1,1.118-.131Zm-4.7,3.711L7.741,11.327l-6.9,6.9a2.9,2.9,0,0,0,4.1,4.1l5.593-5.593a4.859,4.859,0,0,1-.226-2.837ZM2.895,21.359a1.086,1.086,0,1,1,1.086-1.086A1.089,1.089,0,0,1,2.895,21.359Z" transform="translate(0.004)" fill="#f2f2f2"/>
</svg>
