<svg xmlns="http://www.w3.org/2000/svg" width="20.504" height="27.001" viewBox="0 0 29.504 36.001">
  <path id="Icon_simple-superuser" data-name="Icon simple-superuser" d="M31.295,21.719c-2.22.632-3.733,1.931-3.733,4.074v6.122c0,4.572-4.361,4.071-9.776,4.071h-.833c-.337,0-.538-.126-.538-.42v-2.1c0-.291.18-.418.517-.418h.675c3.24,0,5.513.713,5.513-1.89V25.284a5.883,5.883,0,0,1,3.781-5.24c.178-.046.2-.128.2-.212a.34.34,0,0,0-.2-.292c-2.3-1.05-3.781-2.766-3.781-4.826V8.078A5.352,5.352,0,0,0,17.631,2.96h-.677c-.337,0-.5-.126-.5-.418V.451c0-.292.225-.421.563-.421h.834c5.4,0,9.81,3.858,9.81,8.43v5.58c0,2.113,1.506,3.33,3.78,4.116.834.247,1.3.294,1.3.969V20.88c.045.384-.359.563-1.371.855l-.084-.017ZM12.138,35.955H3.753c-.338,0-.5-.084-.5-.378V.419c0-.246.156-.419.5-.419h8.3c.339,0,.54.126.54.419V2.6c0,.293-.182.378-.519.378H8.358c-.457,0-.63.167-.63.461V32.555c0,.294.173.4.55.4h3.776c.339,0,.545.114.545.382v2.226c.043.249-.126.382-.462.382v0ZM19.451,16.4H17.223a.936.936,0,0,1-.963-.885V13.5a.93.93,0,0,1,.963-.877h2.228a.934.934,0,0,1,.963.877v2.014a.937.937,0,0,1-.968.882l0,0Z" transform="translate(-3.249)" fill="#f2f2f2"/>
</svg>
