<svg xmlns="http://www.w3.org/2000/svg" width="62.453" height="81.079" viewBox="0 0 82.453 101.079">
  <g id="Componente_2_1" data-name="Componente 2 – 1" transform="translate(2.259 2.399)">
    <g id="Icon_feather-lock" data-name="Icon feather-lock">
      <path id="Caminho_35" data-name="Caminho 35" d="M12.553,16.5H68.923a8.053,8.053,0,0,1,8.053,8.053V52.738a8.053,8.053,0,0,1-8.053,8.053H12.553A8.053,8.053,0,0,1,4.5,52.738V24.553A8.053,8.053,0,0,1,12.553,16.5Z" transform="translate(4.004 25.509) rotate(8)" fill="none" stroke="#13f2f2" stroke-linecap="round" stroke-linejoin="round" stroke-width="4"/>
      <path id="Caminho_36" data-name="Caminho 36" d="M10.5,39.238V23.132a20.132,20.132,0,0,1,40.265,0V39.238" transform="translate(4.37 8.496) rotate(-13)" fill="none" stroke="#13f2f2" stroke-linecap="round" stroke-linejoin="round" stroke-width="4"/>
    </g>
    <path id="Icon_awesome-check" data-name="Icon awesome-check" d="M12.227,30.9.527,19.2a1.8,1.8,0,0,1,0-2.546L3.073,14.1a1.8,1.8,0,0,1,2.546,0L13.5,21.986,30.382,5.1a1.8,1.8,0,0,1,2.546,0L35.473,7.65a1.8,1.8,0,0,1,0,2.546l-20.7,20.7A1.8,1.8,0,0,1,12.227,30.9Z" transform="translate(24 51.423)" fill="#13f2f2"/>
  </g>
</svg>
