<svg xmlns="http://www.w3.org/2000/svg" width="11.456" height="11.457" viewBox="0 0 11.456 11.457">
  <path id="Icon_material-update" data-name="Icon material-update" d="M15.958,9.032H11.643l1.744-1.795A4.48,4.48,0,0,0,7.1,7.173a4.376,4.376,0,0,0,0,6.231,4.468,4.468,0,0,0,6.289,0,4.146,4.146,0,0,0,1.3-3.113h1.273a5.945,5.945,0,0,1-1.68,4,5.763,5.763,0,0,1-8.1,0,5.627,5.627,0,0,1-.013-8.007,5.72,5.72,0,0,1,8.052,0L15.958,4.5Zm-5.41-1.349v2.705l2.228,1.324-.458.77L9.593,10.865V7.683Z" transform="translate(-4.502 -4.5)" fill="#fff"/>
</svg>
