<svg xmlns="http://www.w3.org/2000/svg" width="40" height="40" viewBox="0 0 47.662 47.662">
  <path id="Icon_awesome-user-circle" data-name="Icon awesome-user-circle"
        d="M23.831.563A23.831,23.831,0,1,0,47.662,24.394,23.827,23.827,0,0,0,23.831.563Zm0,9.225a8.456,8.456,0,1,1-8.456,8.456A8.456,8.456,0,0,1,23.831,9.787Zm0,33.056A18.414,18.414,0,0,1,9.753,36.29a10.714,10.714,0,0,1,9.465-5.746,2.351,2.351,0,0,1,.682.106,12.723,12.723,0,0,0,3.93.663,12.675,12.675,0,0,0,3.93-.663,2.351,2.351,0,0,1,.682-.106,10.714,10.714,0,0,1,9.465,5.746A18.414,18.414,0,0,1,23.831,42.843Z"
        transform="translate(0 -0.563)" fill="#a8a8a8"/>
</svg>
