<svg xmlns="http://www.w3.org/2000/svg" viewBox="0 0 525.2 282.31"><defs><style>.cls-1,.cls-2{fill:#fff;}.cls-2{stroke:#fff;stroke-miterlimit:10;stroke-width:12px;}</style></defs><g id="Camada_2" data-name="Camada 2"><g id="Camada_1-2" data-name="Camada 1"><path class="cls-1" d="M0,274l3-1.07A11.86,11.86,0,0,0,7,278.05a10,10,0,0,0,5.86,1.66A9,9,0,0,0,18.58,278a5.56,5.56,0,0,0,2.18-4.56,5.09,5.09,0,0,0-1.43-3.71,12.81,12.81,0,0,0-4.85-2.66q-1.86-.65-4.94-1.54a30.69,30.69,0,0,1-3.95-1.33,10.78,10.78,0,0,1-3.88-2.9A6.09,6.09,0,0,1,.56,257.5a7.69,7.69,0,0,1,2.89-6.35q2.88-2.31,7.94-2.31a13.44,13.44,0,0,1,7.42,1.9,11.71,11.71,0,0,1,4.45,5.81l-3,.81a10.39,10.39,0,0,0-3.61-4.46,9.71,9.71,0,0,0-5.45-1.45A7.92,7.92,0,0,0,6.14,253a4.92,4.92,0,0,0-1.95,4.05,4.37,4.37,0,0,0,1.26,3.17,9.06,9.06,0,0,0,3.92,2.11c.68.22,1.67.52,3,.89a39.69,39.69,0,0,1,7.18,2.57A10.79,10.79,0,0,1,23.25,269,7.12,7.12,0,0,1,24.41,273a8.22,8.22,0,0,1-3.13,6.77q-3.12,2.52-8.46,2.52a14.25,14.25,0,0,1-7.9-2A13.53,13.53,0,0,1,0,274Z"/><path class="cls-1" d="M91.52,281.76V268.49L80,249.37h3.7l9.53,15.53,9.67-15.53h3.71L95,268.49v13.27Z"/><path class="cls-1" d="M162.1,274l3-1.07a11.93,11.93,0,0,0,3.92,5.11,10.09,10.09,0,0,0,5.86,1.66,9,9,0,0,0,5.76-1.73,5.54,5.54,0,0,0,2.18-4.56,5.05,5.05,0,0,0-1.43-3.71,12.81,12.81,0,0,0-4.85-2.66q-1.86-.65-4.94-1.54a30.34,30.34,0,0,1-3.94-1.33,10.69,10.69,0,0,1-3.88-2.9,6.09,6.09,0,0,1-1.15-3.78,7.71,7.71,0,0,1,2.88-6.35c1.93-1.54,4.57-2.31,7.94-2.31a13.42,13.42,0,0,1,7.42,1.9,11.73,11.73,0,0,1,4.46,5.81l-3,.81a10.41,10.41,0,0,0-3.62-4.46,9.69,9.69,0,0,0-5.45-1.45,7.91,7.91,0,0,0-5.09,1.56,4.9,4.9,0,0,0-2,4.05,4.34,4.34,0,0,0,1.27,3.17,9.06,9.06,0,0,0,3.92,2.11c.68.22,1.66.52,3,.89a39.49,39.49,0,0,1,7.17,2.57,10.7,10.7,0,0,1,3.74,3.16,7.05,7.05,0,0,1,1.17,4.06,8.25,8.25,0,0,1-3.13,6.77q-3.13,2.52-8.47,2.52a14.27,14.27,0,0,1-7.9-2A13.45,13.45,0,0,1,162.1,274Z"/><path class="cls-1" d="M253.28,281.76V252H242.1v-2.61H268V252H256.8v29.78Z"/><path class="cls-1" d="M348.86,279.16v2.6H326.41V249.37h21.65V252H329.91v11.34h13.14v2.61H329.91v13.23Z"/><path class="cls-1" d="M407.87,281.76V249.37h6.23L424.44,277l10.42-27.64h6.2v32.39h-3.24V252.44h-.77L426,281.76h-3L411.9,252.44h-.79v29.32Z"/><path class="cls-1" d="M500.79,274l3-1.07a11.78,11.78,0,0,0,3.92,5.11,10,10,0,0,0,5.86,1.66,9,9,0,0,0,5.76-1.73,5.56,5.56,0,0,0,2.18-4.56,5.09,5.09,0,0,0-1.43-3.71,12.81,12.81,0,0,0-4.85-2.66c-1.25-.43-2.89-.94-4.94-1.54a30.11,30.11,0,0,1-3.95-1.33,10.78,10.78,0,0,1-3.88-2.9,6.09,6.09,0,0,1-1.15-3.78,7.69,7.69,0,0,1,2.89-6.35q2.88-2.31,7.94-2.31a13.44,13.44,0,0,1,7.42,1.9,11.77,11.77,0,0,1,4.45,5.81l-3,.81a10.39,10.39,0,0,0-3.61-4.46,9.73,9.73,0,0,0-5.46-1.45,7.91,7.91,0,0,0-5.09,1.56,4.92,4.92,0,0,0-1.95,4.05,4.37,4.37,0,0,0,1.26,3.17,9.06,9.06,0,0,0,3.92,2.11c.68.22,1.67.52,3,.89a39.69,39.69,0,0,1,7.18,2.57A10.79,10.79,0,0,1,524,269,7.12,7.12,0,0,1,525.2,273a8.22,8.22,0,0,1-3.13,6.77q-3.12,2.52-8.46,2.52a14.31,14.31,0,0,1-7.91-2A13.57,13.57,0,0,1,500.79,274Z"/><path class="cls-1" d="M326.83,0c13.29,25.87,17.9,57.46,10.81,89.5-15.06,68-77.17,112.29-138.72,98.86A104.21,104.21,0,0,1,158.78,170a139.53,139.53,0,0,0,29,19.34c63.64,31.8,139.21,10.27,168.78-48.09C380.57,93.91,366.88,36.82,326.83,0Z"/><polygon class="cls-2" points="173.23 165.55 238.17 84.36 205.91 6.71 222.25 6.71 248.97 70.72 299.4 6.71 315.09 6.71 254.67 83.5 290.15 165.55 273.15 165.55 243.84 96.06 189.03 165.55 173.23 165.55"/></g></g></svg>